<?xml version="1.0" encoding="UTF-8"?>
<svg width="121px" height="50px" viewBox="0 0 121 50" version="1.1" xmlns="http://www.w3.org/2000/svg" xmlns:xlink="http://www.w3.org/1999/xlink">
    <!-- Generator: Sketch 43.2 (39069) - http://www.bohemiancoding.com/sketch -->
    <title>Artboard</title>
    <desc>Created with Sketch.</desc>
    <defs></defs>
    <g id="Page-1" stroke="none" stroke-width="1" fill="none" fill-rule="evenodd">
        <g id="Artboard" fill="#CC3B1D">
            <path d="M1,25.7119141 C1,25.247068 1.02734348,24.7548854 1.08203125,24.2353516 C1.36914206,21.8974492 2.10741593,19.819345 3.296875,18.0009766 C4.75977294,15.7724498 6.50975544,14.6582031 8.546875,14.6582031 C8.82031387,14.6582031 9.11425624,14.6787107 9.42871094,14.7197266 C10.8779369,14.9248057 11.6298825,15.4511676 11.6845703,16.2988281 C11.6708984,16.9550814 11.0898495,17.3037107 9.94140625,17.3447266 L9.24414062,17.3447266 C8.9843737,17.3447266 8.73144654,17.3789059 8.48535156,17.4472656 C7.22753277,17.8164081 6.16113719,18.9579982 5.28613281,20.8720703 C4.47948815,22.635751 4.07617188,24.413077 4.07617188,26.2041016 C4.07617188,27.1201218 4.23339687,27.8105446 4.54785156,28.2753906 C4.91699403,28.7949245 5.6552679,29.1025386 6.76269531,29.1982422 C7.24121333,29.1982422 7.71972417,29.1435552 8.19824219,29.0341797 C9.07324656,28.8427725 10.1054628,28.3574258 11.2949219,27.578125 C12.0742226,27.0722631 12.6210922,26.8193359 12.9355469,26.8193359 C13.1269541,26.8193359 13.3183584,26.8808588 13.5097656,27.0039062 C13.9335959,27.2773451 14.1455078,27.6601538 14.1455078,28.1523438 C14.1455078,28.3027351 14.1113285,28.466796 14.0429688,28.6445312 C13.6874982,29.4511759 12.6894613,30.2441367 11.0488281,31.0234375 C9.27147549,31.857426 7.63086689,32.2744141 6.12695312,32.2744141 C2.73631117,32.2607421 1.02734389,30.073264 1,25.7119141 Z M15.8931259,30.1416016 L19.379454,3.39941406 C19.5845332,1.81346863 20.1519103,1.01367194 21.0816025,1 C21.3003535,1 21.5054296,1.02734348 21.6968368,1.08203125 C22.2163707,1.27343846 22.4761337,1.84765146 22.4761337,2.8046875 C22.4761337,3.98047463 21.9087566,8.97749497 20.7739853,17.7958984 C21.7857091,16.0185458 23.2280775,15.1230469 25.1011337,15.109375 C25.7710589,15.109375 26.393123,15.3212869 26.9673446,15.7451172 C27.7876612,16.3466827 28.1978134,17.1464794 28.1978134,18.1445312 L28.1978134,19.2929688 C28.1841414,20.7011789 28.1773056,21.8154256 28.1773056,22.6357422 C28.1773056,25.4658345 28.2525001,27.1064431 28.4028915,27.5576172 C28.4302354,27.6533208 28.4644147,27.7558588 28.5054306,27.8652344 C28.9155889,28.9453179 29.4624584,29.4853516 30.1460556,29.4853516 C30.282775,29.4853516 30.4263283,29.4716798 30.5767196,29.4443359 C30.973206,29.3486323 31.5542549,29.0273465 32.3198837,28.4804688 C33.0718406,27.933591 33.6733971,27.6601562 34.1245712,27.6601562 C34.2886345,27.6601562 34.4526954,27.7080073 34.6167587,27.8037109 C35.0542609,28.0634779 35.2730087,28.47363 35.2730087,29.0341797 C35.2730087,29.0751955 35.2661728,29.1298825 35.2525009,29.1982422 C35.1567973,29.8544955 34.5894201,30.5380824 33.5503525,31.2490234 C32.2788617,32.0966839 31.0210618,32.5205078 29.776915,32.5205078 C29.284725,32.5205078 28.8198859,32.458985 28.3823837,32.3359375 C26.1128411,31.6660123 24.9780868,29.3144733 24.9780868,25.28125 C24.9780868,24.9394514 24.9917586,24.4062536 25.0191025,23.6816406 C25.0601183,22.8203082 25.0806259,22.150393 25.0806259,21.671875 C25.0806259,19.6484274 24.9028933,18.623047 24.5474228,18.5957031 C24.479063,18.5957031 24.4038685,18.6093749 24.3218368,18.6367188 C23.5425361,18.9375015 22.551335,20.4687362 21.348204,23.2304688 C20.2954644,25.6914186 19.6187133,27.7626869 19.3179306,29.4443359 C19.2632428,29.7177748 19.2358993,29.9296867 19.2358993,30.0800781 C19.1948835,30.5722681 19.0581661,31.0165996 18.8257431,31.4130859 C18.4429287,32.0693392 17.957582,32.3974609 17.3696884,32.3974609 C17.2056251,32.3974609 17.0415642,32.3632816 16.8775009,32.2949219 C16.2212476,32.021483 15.8931259,31.3857472 15.8931259,30.3876953 L15.8931259,30.1416016 Z M34.703244,26.0605469 C34.703244,25.5957008 34.7305874,25.1035182 34.7852752,24.5839844 C35.072386,22.2460821 35.8106599,20.1679778 37.000119,18.3496094 C38.449345,16.1210826 40.1924916,15.0068359 42.2296112,15.0068359 C42.7764889,15.0068359 43.3028508,15.0751946 43.8087127,15.2119141 C45.6134092,15.7314479 46.515744,17.0029196 46.515744,19.0263672 C46.515744,19.1767586 46.5089081,19.3339836 46.4952362,19.4980469 C46.3585167,21.3300873 45.5382124,22.8681578 44.0342987,24.1123047 C42.5577288,25.3427796 40.8419256,25.9580078 38.8868377,25.9580078 C38.5176953,25.9580078 38.1553942,25.9238285 37.7999237,25.8554688 C37.7725798,26.0605479 37.758908,26.3476544 37.758908,26.7167969 C37.758908,27.5097696 37.8956254,28.1249978 38.1690643,28.5625 C38.5382068,29.1230497 39.2969882,29.4511714 40.4454315,29.546875 C40.9512934,29.546875 41.4503118,29.492188 41.9425018,29.3828125 C42.8038342,29.1777333 43.8223787,28.6923866 44.9981658,27.9267578 C45.7637947,27.4208959 46.3038283,27.1679688 46.618283,27.1679688 C46.7960183,27.1679688 46.9805868,27.2226557 47.171994,27.3320312 C47.6094962,27.5917982 47.828244,27.967771 47.828244,28.4599609 C47.828244,28.6240243 47.7940646,28.8017569 47.7257049,28.9931641 C47.3565624,29.8818404 46.2491516,30.7226523 44.4034393,31.515625 C42.6944464,32.2539099 41.1905552,32.6230469 39.8917205,32.6230469 C39.3995306,32.6230469 38.9415273,32.5820317 38.5176971,32.5 C35.9747156,31.9804662 34.703244,29.8340032 34.703244,26.0605469 Z M41.2862518,18.2265625 C40.0421049,19.060551 39.0645757,20.6464727 38.3536346,22.984375 C38.6954332,23.0664067 39.0235549,23.1074219 39.3380096,23.1074219 C40.4727809,23.1074219 41.4639819,22.7587925 42.3116424,22.0615234 C43.2550065,21.2958946 43.7266815,20.386724 43.7266815,19.3339844 C43.7266815,18.2812447 43.3917239,17.7480469 42.7217987,17.734375 C42.2432806,17.7480469 41.7647698,17.9121078 41.2862518,18.2265625 Z M61.5114089,32.4384766 C59.9528074,32.4248046 58.6608281,31.9052786 57.6354324,30.8798828 C56.4869891,31.9052786 55.0377849,32.4248046 53.2877761,32.4384766 C52.7955862,32.4384766 52.3307471,32.3769537 51.8932449,32.2539062 C49.5006548,31.5292933 48.3043777,28.8974836 48.3043777,24.3583984 C48.3043777,22.1708875 48.5436331,19.9697376 49.0221511,17.7548828 C49.4186375,16.0322179 50.0953885,15.1640626 51.0524246,15.1503906 C51.9274289,15.1640626 52.3785963,15.6972604 52.4059402,16.75 C52.4059402,16.9687511 52.3444174,17.4472619 52.2213699,18.1855469 C51.7428518,21.3164219 51.5035964,23.5722587 51.5035964,24.953125 C51.5035964,27.7832173 52.2623779,29.2119139 53.7799636,29.2392578 C54.901063,29.1572262 55.7828901,28.5283262 56.4254714,27.3525391 L56.3844558,26.6962891 C56.3844558,25.985348 56.4596504,25.1445361 56.6100417,24.1738281 C57.0475439,21.3437358 57.8678482,19.9287109 59.0709792,19.9287109 C60.082703,19.9423829 60.5953932,20.8720611 60.6090652,22.7177734 C60.6090652,24.5498138 60.3082869,26.2451094 59.7067214,27.8037109 C59.9528164,28.747075 60.602224,29.2255859 61.6549636,29.2392578 C62.6119996,29.2392578 63.5416779,28.8906285 64.4440261,28.1933594 C65.7975485,27.1269478 66.9117952,25.4726675 67.7867996,23.2304688 C67.185234,23.1347651 66.6315286,22.9638684 66.1256667,22.7177734 C64.5807371,21.9384727 63.8082839,20.6259858 63.8082839,18.7802734 C63.8082839,17.8779252 64.1364056,17.0918002 64.7926589,16.421875 C65.5309439,15.6699181 66.3990992,15.2939453 67.3971511,15.2939453 C68.2858274,15.2939453 69.0856241,15.5400366 69.7965652,16.0322266 C70.808289,16.7568396 71.3346509,17.7548765 71.3756667,19.0263672 L71.3346511,20.0722656 C71.5670741,19.9628901 71.8610165,19.7988292 72.2164871,19.5800781 C72.7496928,19.2519515 73.1871885,19.0878906 73.5289871,19.0878906 C73.7203943,19.0878906 73.9117986,19.1425776 74.1032058,19.2519531 C74.5680519,19.51172 74.8004714,19.9013646 74.8004714,20.4208984 C74.8004714,20.7353531 74.6842616,21.0361314 74.4518386,21.3232422 C73.8229292,22.102543 72.5993086,22.6835918 70.7809402,23.0664062 C70.2067186,25.0214942 69.3727425,26.7783125 68.2789871,28.3369141 C66.351243,31.0713027 64.0954062,32.4384766 61.5114089,32.4384766 Z M67.6842605,18.1445312 C67.5475411,18.1445312 67.4039878,18.1718747 67.2535964,18.2265625 C66.8160942,18.3906258 66.5973464,18.6914041 66.5973464,19.1289062 C66.5973464,19.183594 66.6041823,19.238281 66.6178542,19.2929688 C66.7135578,20.0039098 67.3561295,20.4003902 68.5455886,20.4824219 C68.6139483,20.1679672 68.6481277,19.8398455 68.6481277,19.4980469 C68.6344557,18.6777303 68.3131699,18.2265629 67.6842605,18.1445312 Z M77.6555114,16.4423828 C77.6555114,16.8388692 77.5871527,17.6933528 77.4504333,19.0058594 C77.026603,22.8886913 76.8146911,25.3017531 76.8146911,26.2451172 C76.8146911,26.8740266 76.9445726,27.4619113 77.2043395,28.0087891 C77.5871539,28.8291057 78.0998441,29.2392578 78.7424254,29.2392578 C78.8791449,29.2392578 79.0226981,29.2255861 79.1730895,29.1982422 C79.5695759,29.1025386 80.1437889,28.7812527 80.8957458,28.234375 C81.6340307,27.6874973 82.2287513,27.4140625 82.6799254,27.4140625 C82.8713326,27.4140625 83.062737,27.4824212 83.2541442,27.6191406 C83.6369586,27.8925795 83.8283629,28.2548806 83.8283629,28.7060547 C83.7736752,29.4033238 83.2336415,30.1415977 82.2082458,30.9208984 C80.950427,31.7959028 79.6311042,32.2333984 78.2502379,32.2333984 C77.0881228,32.2333984 76.1242652,31.8300822 75.3586364,31.0234375 C74.2101931,29.7929626 73.6359801,27.837904 73.6359801,25.1582031 C73.6359801,24.2421829 73.8205486,22.4511852 74.1896911,19.7851562 C74.3537544,18.5410094 74.4699642,17.6250029 74.5383239,17.0371094 L74.5793395,16.6679688 C74.7980906,15.3007744 75.3586319,14.6171875 76.2609801,14.6171875 C76.4113715,14.6171875 76.5617606,14.6308592 76.712152,14.6582031 C77.3410614,14.8085945 77.6555114,15.4033151 77.6555114,16.4423828 Z M75.3176208,11.0693359 C75.3176208,10.823241 75.3723077,10.5908214 75.4816833,10.3720703 C75.7551221,9.83886452 76.1994536,9.57226562 76.8146911,9.57226562 C77.060786,9.57226562 77.2932056,9.62695258 77.5119567,9.73632812 C78.0451625,10.009767 78.3117614,10.4540985 78.3117614,11.0693359 C78.3117614,11.3154309 78.2570744,11.5478505 78.1476989,11.7666016 C77.87426,12.2998074 77.4299285,12.5664062 76.8146911,12.5664062 C76.5685961,12.5664062 76.3361765,12.5117193 76.1174254,12.4023438 C75.5842197,12.1289049 75.3176208,11.6845734 75.3176208,11.0693359 Z M82.9099654,25.9990234 C82.9099654,25.5341774 82.9373089,25.0419948 82.9919966,24.5224609 C83.2791075,22.1708867 84.0173813,20.0859466 85.2068404,18.2675781 C86.6560664,16.0527233 88.399213,14.9453125 90.4363326,14.9453125 C91.3250089,14.9453125 92.104298,15.1162092 92.7742232,15.4580078 C93.0476621,15.1298812 93.416799,14.9589844 93.8816451,14.9453125 C94.7839933,14.9589844 95.2488324,15.5400333 95.2761763,16.6884766 C95.2761763,16.7294924 94.5242307,22.1435008 93.020317,32.9306641 C96.0418164,30.6747934 97.9558598,29.2119174 98.7625045,28.5419922 C99.2683664,28.10449 99.7947283,27.8789063 100.341606,27.8652344 C100.533013,27.8652344 100.717582,27.9267572 100.895317,28.0498047 C101.291803,28.3232436 101.490044,28.6718729 101.490044,29.0957031 C101.476372,29.7382845 101.100399,30.3740203 100.362114,31.0029297 C98.9949195,32.1513729 96.3357664,34.236313 92.3845748,37.2578125 L91.4412154,44.0458984 C91.2087924,45.6045 90.5457131,46.7939412 89.4519576,47.6142578 C88.5632813,48.2568392 87.585752,48.578125 86.5193404,48.578125 C85.2615216,48.5644531 84.1472749,48.0859422 83.176567,47.1425781 C82.2468748,46.199214 81.7820357,45.1464902 81.7820357,43.984375 C81.7820357,42.8359318 82.0417987,41.8857459 82.5613326,41.1337891 C82.8894592,40.655271 83.5251951,40.0673863 84.4685591,39.3701172 L84.5095748,39.3496094 C84.5232467,39.3359374 84.5642619,39.3017581 84.6326216,39.2470703 C85.5759857,38.5498012 87.2097585,37.3261806 89.5339888,35.5761719 L90.1287154,31.5976562 C89.2126952,32.2128937 88.2556735,32.5273437 87.2576216,32.5410156 C86.3826173,32.5410156 85.6238358,32.3154319 84.9812545,31.8642578 C83.6003882,30.852534 82.9099654,28.8974754 82.9099654,25.9990234 Z M90.1902388,27.3935547 C90.381646,27.1201158 90.6140656,26.3886778 90.8875045,25.1992188 C91.4480541,22.7792848 91.8513704,20.3457154 92.0974654,17.8984375 C91.7830107,17.7343742 91.4617248,17.6455079 91.1335982,17.6318359 C90.8875032,17.6318359 90.6345761,17.6660153 90.3748091,17.734375 C89.1033184,18.0898455 88.0232511,19.265615 87.1345748,21.2617188 C86.355274,23.0527433 85.9656295,24.8505769 85.9656295,26.6552734 C85.9656295,26.8466806 85.9724653,27.038085 85.9861373,27.2294922 C86.0818409,28.6650462 86.5056648,29.3828125 87.2576216,29.3828125 C87.6404361,29.3828125 88.1052752,29.1914082 88.6521529,28.8085938 C89.2947342,28.3574196 89.8074244,27.8857446 90.1902388,27.3935547 Z M88.5085982,42.4052734 L88.857231,39.9033203 C88.8025432,39.9443361 88.7410204,39.9921872 88.6726607,40.046875 C87.3191383,41.0859427 86.6287155,41.6191405 86.6013716,41.6464844 C85.6169917,42.3847693 85.1179733,43.082028 85.1043013,43.7382812 C85.1043013,43.9707043 85.1453165,44.1894521 85.2273482,44.3945312 C85.4597712,44.9960968 85.890431,45.296875 86.5193404,45.296875 C86.7791073,45.296875 87.0115269,45.2558598 87.216606,45.1738281 C87.8865312,44.8867173 88.317191,43.963875 88.5085982,42.4052734 Z M102.950552,14.7607422 C103.825557,14.7744141 104.276724,15.3076119 104.304068,16.3603516 C104.304068,16.5654307 104.249381,17.0097622 104.140005,17.6933594 C103.675159,20.7422027 103.44274,22.9501885 103.44274,24.3173828 C103.44274,27.2705226 104.194685,28.7607421 105.698599,28.7880859 C106.026726,28.7607421 106.341176,28.6513681 106.641958,28.4599609 C107.913449,27.6396443 108.870471,25.0146706 109.513052,20.5849609 C109.677116,19.4365177 109.793325,18.1582102 109.861685,16.75 C109.875357,16.6132806 109.882193,16.5312501 109.882193,16.5039062 C109.895865,16.4082026 109.909537,16.3193363 109.923208,16.2373047 C110.087272,15.3212845 110.599962,14.8632812 111.461294,14.8632812 C111.625358,14.8632812 111.789419,14.8906247 111.953482,14.9453125 C112.568719,15.1640636 112.876333,15.7519483 112.876333,16.7089844 C112.876333,16.8183599 112.869498,16.968749 112.855826,17.1601562 L112.855826,17.40625 L110.784537,32.5205078 C114.079475,30.0458861 116.020862,28.5556666 116.608755,28.0498047 C117.141961,27.6123025 117.668323,27.3935547 118.187857,27.3935547 C118.365592,27.3935547 118.550161,27.4482416 118.741568,27.5576172 C119.138054,27.8173841 119.336294,28.1660134 119.336294,28.6035156 C119.322622,29.246097 118.94665,29.8818328 118.208365,30.5107422 C116.827498,31.6865293 114.161509,33.7851411 110.210318,36.8066406 L109.287466,43.5537109 C109.055043,45.1670003 108.316769,46.3906208 107.072623,47.2246094 C106.197618,47.798831 105.302119,48.0859375 104.386099,48.0859375 C103.12828,48.0859375 102.014034,47.6142625 101.043326,46.6708984 C100.099962,45.7275343 99.6282866,44.6679746 99.6282866,43.4921875 C99.6282866,42.2480407 99.9359007,41.236332 100.551138,40.4570312 C100.865593,40.0605449 101.501329,39.5068395 102.458365,38.7958984 C102.581412,38.659179 104.222021,37.4218867 107.38024,35.0839844 C107.557975,33.8535095 107.742543,32.6572324 107.933951,31.4951172 C107.140978,31.8642597 106.224971,32.0488281 105.185904,32.0488281 C104.693714,32.0488281 104.228875,31.9873053 103.791373,31.8642578 C101.398782,31.1396448 100.202505,28.5078352 100.202505,23.96875 C100.216177,21.7128793 100.455433,19.5185654 100.920279,17.3857422 C101.303093,15.731437 101.979844,14.8564458 102.950552,14.7607422 Z M106.375357,41.9335938 L106.72399,39.4111328 C105.31578,40.4775444 104.556998,41.0585933 104.447623,41.1542969 C103.463243,41.9199257 102.964224,42.6171844 102.950552,43.2460938 C102.950552,43.4785168 102.991567,43.7041005 103.073599,43.9228516 C103.306022,44.5244171 103.743518,44.8251953 104.386099,44.8251953 C104.632194,44.8251953 104.850942,44.7841801 105.042349,44.7021484 C105.725946,44.4423815 106.170278,43.5195392 106.375357,41.9335938 Z" id="chewigy"></path>
        </g>
    </g>
</svg>